<?xml version="1.0" encoding="utf-8"?>
<!-- Generator: Adobe Illustrator 16.0.0, SVG Export Plug-In . SVG Version: 6.00 Build 0)  -->
<!DOCTYPE svg PUBLIC "-//W3C//DTD SVG 1.0//EN" "http://www.w3.org/TR/2001/REC-SVG-20010904/DTD/svg10.dtd">
<svg version="1.0" id="Layer_1" xmlns="http://www.w3.org/2000/svg" xmlns:xlink="http://www.w3.org/1999/xlink" x="0px" y="0px"
	 width="279.381px" height="29.025px" viewBox="0 0 279.381 29.025" enable-background="new 0 0 279.381 29.025"
	 xml:space="preserve">
<g>
	<path fill="#41C9F3" d="M16.662,16.571v11.438h-6.52V16.571L0,1.017h7.892h11.514h7.625L16.662,16.571z"/>
	<path fill="#41C9F3" d="M55.968,14.398c0,2.135-0.369,4.086-1.105,5.853c-0.738,1.767-1.761,3.278-3.069,4.537
		c-1.31,1.258-2.866,2.229-4.67,2.916c-1.805,0.687-3.762,1.029-5.871,1.029c-2.11,0-4.061-0.343-5.853-1.029
		c-1.792-0.687-3.342-1.658-4.651-2.916c-1.31-1.259-2.333-2.771-3.069-4.537c-0.737-1.767-1.105-3.718-1.105-5.853
		c0-2.16,0.368-4.111,1.105-5.852c0.737-1.741,1.76-3.222,3.069-4.442c1.309-1.22,2.859-2.16,4.651-2.821
		c1.792-0.66,3.743-0.991,5.853-0.991c2.109,0,4.066,0.331,5.871,0.991c1.804,0.661,3.361,1.602,4.67,2.821
		c1.309,1.221,2.332,2.701,3.069,4.442C55.599,10.287,55.968,12.238,55.968,14.398z"/>
	<path fill="#41C9F3" d="M83.151,1.017V17.83c0,1.627-0.273,3.107-0.82,4.441c-0.547,1.334-1.328,2.479-2.345,3.432
		s-2.243,1.696-3.679,2.229c-1.437,0.534-3.031,0.801-4.785,0.801c-1.779,0-3.38-0.267-4.804-0.801
		c-1.424-0.533-2.63-1.276-3.622-2.229s-1.754-2.098-2.288-3.432s-0.801-2.814-0.801-4.441V1.017"/>
	<path fill="#41C9F3" d="M115.559,28.009l-2.098-5.299h-10.445l-1.982,5.299h-7.092l11.322-26.992h6.33l11.209,26.992H115.559z"/>
	<path fill="#41C9F3" d="M139.5,28.009l-5.859-10.713h-2.223v10.713h-6.367V1.017h10.293c1.297,0,2.561,0.134,3.795,0.4
		c1.232,0.267,2.338,0.719,3.316,1.354c0.979,0.636,1.76,1.475,2.344,2.517c0.586,1.042,0.877,2.338,0.877,3.889
		c0,1.83-0.494,3.367-1.486,4.612c-0.992,1.246-2.363,2.136-4.117,2.669l7.053,11.552H139.5z"/>
	<path fill="#41C9F3" d="M150.328,28.009V1.017h18.146v5.49h-11.857v5.108h11.209v5.224h-11.209v5.604h12.545v5.565H150.328z"/>
	<path fill="#41C9F3" d="M200.043,28.009V16.725H189.52v11.284H183V1.017h6.52v10.218h10.523V1.017h6.52v26.992H200.043z"/>
	<path fill="#41C9F3" d="M212.129,28.009V1.017h18.146v5.49h-11.857v5.108h11.209v5.224h-11.209v5.604h12.543v5.565H212.129z"/>
	<path fill="#41C9F3" d="M249.719,28.009l-5.859-10.713h-2.223v10.713h-6.367V1.017h10.293c1.297,0,2.561,0.134,3.795,0.4
		c1.232,0.267,2.338,0.719,3.316,1.354c0.979,0.636,1.76,1.475,2.344,2.517c0.586,1.042,0.879,2.338,0.879,3.889
		c0,1.83-0.496,3.367-1.488,4.612c-0.99,1.246-2.363,2.136-4.117,2.669l7.053,11.552H249.719z"/>
	<path fill="#41C9F3" d="M260.547,28.009V1.017h18.146v5.49h-11.855v5.108h11.207v5.224h-11.207v5.604h12.543v5.565H260.547z"/>
</g>
</svg>
